<?xml version="1.0" encoding="utf-8"?>
<svg version="1.1" xmlns:xlink="http://www.w3.org/1999/xlink" width="108px" height="108px" xmlns="http://www.w3.org/2000/svg">
  <g transform="matrix(1 0 0 1 -666 -213 )">
    <path d="M 104.145008365867 0  C 104.948131622978 0  105.670942554378 0.220982142857153  106.313441160067 0.662946428571434  C 107.6385945343 1.62723214285714  108.18070273285 2.91294642857143  107.939765755717 4.52008928571429  L 92.5197992191857 97.0915178571429  C 92.319018404908 98.2566964285714  91.6765197992192 99.1607142857143  90.5923034021194 99.8035714285714  C 90.0301171221417 100.125  89.4076965978806 100.285714285714  88.7250418293363 100.285714285714  C 88.2833240379253 100.285714285714  87.8014500836587 100.185267857143  87.2794199665365 99.984375  L 59.9933073061907 88.8348214285714  L 45.4166201896263 106.613839285714  C 44.6938092582264 107.537946428571  43.7099832682655 108  42.4651422197434 108  C 41.9431121026213 108  41.5013943112103 107.919642857143  41.1399888455103 107.758928571429  C 40.3770217512549 107.477678571429  39.7646402677078 107.005580357143  39.3028443948689 106.342633928571  C 38.8410485220301 105.6796875  38.6101505856107 104.946428571429  39 104.142857142857  L 39 83.109375  L 90.6525376464027 19.2857142857143  L 26.2621305075293 75.0334821428571  L 2.46960401561629 65.2700892857143  C 0.983825989960959 64.7075892857143  0.180702732849972 63.6026785714286  0.060234244283324 61.9553571428571  C -0.0200780814277747 60.3482142857143  0.622420524261015 59.1629464285714  1.98773006134969 58.3995535714286  L 102.217512548801 0.542410714285711  C 102.819854991634 0.180803571428566  103.462353597323 0  104.145008365867 0  Z " fill-rule="nonzero" fill="#000000" stroke="none" transform="matrix(1 0 0 1 666 213 )" />
  </g>
</svg>