<?xml version="1.0" encoding="utf-8"?>
<svg version="1.1" xmlns:xlink="http://www.w3.org/1999/xlink" width="45px" height="45px" xmlns="http://www.w3.org/2000/svg">
  <g transform="matrix(1 0 0 1 -382 -7 )">
    <path d="M 15.489375 24.375  C 19.010625 24.375  19.245 28.14375  15.4275 28.14375  L 11.25 28.14375  L 11.25 24.375  L 15.489375 24.375  Z M 33.7575 23.124375  C 33.538125 19.90875  28.63875 19.4175  28.09875 23.124375  L 33.7575 23.124375  Z M 15.729375 20.625  C 18.86625 20.625  19.36125 16.875  15.34125 16.875  L 11.25 16.875  L 11.25 20.625  L 15.729375 20.625  Z M 35.625 0  C 40.80375 0  45 4.198125  45 9.375  L 45 35.625  C 45 40.801875  40.80375 45  35.625 45  L 9.375 45  C 4.19625 45  0 40.801875  0 35.625  L 0 9.375  C 0 4.198125  4.19625 0  9.375 0  L 35.625 0  Z M 26.25 13.125  L 26.25 15  L 35.625 15  L 35.625 13.125  L 26.25 13.125  Z M 15.583125 31.86  C 24.061875 31.86  23.9175 23.35875  19.59 21.78375  C 23.165625 19.9575  23.034375 13.2525  16.190625 13.15125  L 8 13.15125  L 8 31.86  L 15.583125 31.86  Z M 37.49625 25.588125  C 37.515 24.399375  37.47375 23.54625  37.378125 22.9125  C 36.864375 19.606875  34.513125 17.38125  30.66 17.38125  C 26.73375 17.38125  24.375 19.89375  24.375 24.781875  C 24.375 29.715  26.938125 31.875  30.78 31.875  C 34.621875 31.875  36.60375 29.746875  37.155 28.125  L 33.196875 28.125  C 31.816875 29.728125  27.7725 29.101875  28.00875 25.588125  L 37.49625 25.588125  Z " fill-rule="nonzero" fill="#000000" stroke="none" transform="matrix(1 0 0 1 382 7 )" />
  </g>
</svg>