<?xml version="1.0" encoding="utf-8"?>
<svg version="1.1" xmlns:xlink="http://www.w3.org/1999/xlink" width="36px" height="36px" xmlns="http://www.w3.org/2000/svg">
  <g transform="matrix(1 0 0 1 -204 -12 )">
    <path d="M 36 0  L 0 0  L 0 36  L 36 36  L 36 0  Z M 11.1973450549451 13.8387164835165  L 11.1973450549451 29.9078505494506  L 6 29.9078505494506  L 6 13.8387164835165  L 11.1973450549451 13.8387164835165  Z M 11.5487208791209 8.86826373626374  C 11.5487208791209 10.4111208791209  10.3901538461538 11.6454857142857  8.52677802197802 11.6454857142857  L 8.49149010989011 11.6454857142857  C 6.6997978021978 11.6454857142857  5.53846153846154 10.4111208791209  5.53846153846154 8.86826373626374  C 5.53846153846154 7.29154285714286  6.73374065934066 6.09214945054945  8.56174945054945 6.09214945054945  C 10.3901538461538 6.09214945054945  11.5137494505495 7.29154285714286  11.5487208791209 8.86826373626374  Z M 30.4615384615385 20.6930373626374  L 30.4615384615385 29.9078505494506  L 25.1189802197802 29.9078505494506  L 25.1189802197802 21.3108131868132  C 25.1189802197802 19.1515252747253  24.3470769230769 17.6775824175824  22.4134417582418 17.6775824175824  C 20.9367296703297 17.6775824175824  20.0592 18.6699956043956  19.6726153846154 19.6313142857143  C 19.5320967032967 19.9746989010989  19.4953846153846 20.4520351648352  19.4953846153846 20.9335648351648  L 19.4953846153846 29.9079296703297  L 14.1517978021978 29.9079296703297  C 14.1517978021978 29.9079296703297  14.2234021978022 15.3462857142857  14.1517978021978 13.8387956043956  L 19.4953846153846 13.8387956043956  L 19.4953846153846 16.1158153846154  C 20.2053362637363 15.0233934065934  21.4722989010989 13.4615472527473  24.3103648351648 13.4615472527473  C 27.8262593406593 13.4615472527473  30.4615384615385 15.7576351648352  30.4615384615385 20.6930373626374  Z " fill-rule="nonzero" fill="#a27635" stroke="none" transform="matrix(1 0 0 1 204 12 )" />
  </g>
</svg>