<?xml version="1.0" encoding="utf-8"?>
<svg version="1.1" xmlns:xlink="http://www.w3.org/1999/xlink" width="57px" height="47px" xmlns="http://www.w3.org/2000/svg">
  <g transform="matrix(1 0 0 1 -590 -6 )">
    <path d="M 51.164625 11.7533542735043  C 53.449375 10.0852057692308  55.4325 8.00422051282051  57 5.63520961538462  C 54.902875 6.57609337606838  52.649 7.20974978632479  50.2835 7.49537521367522  C 52.698875 6.03364508547009  54.55375 3.71743888888889  55.425375 0.957193162393164  C 53.16675 2.31091367521368  50.6635 3.29500128205129  47.99875 3.82544850427351  C 45.868375 1.52844401709402  42.826 0.0931162393162426  39.463 0.0931162393162426  C 31.912875 0.0931162393162426  26.364875 7.21215  28.070125 14.6024079059829  C 18.354 14.1103641025641  9.7375 9.4059452991453  3.968625 2.25570876068376  C 0.904874999999998 7.56738162393163  2.37975 14.5160002136752  7.58575 18.0347134615385  C 5.6715 17.9723079059829  3.8665 17.4418606837607  2.291875 16.5561818376068  C 2.163625 22.0310692307692  6.04675 27.1531252136752  11.67075 28.2932267094017  C 10.024875 28.7444668803419  8.22225 28.8500762820513  6.38875 28.4948446581197  C 7.8755 33.1896626068376  12.19325 36.6051666666667  17.31375 36.7011752136752  C 12.3975 40.596722008547  6.2035 42.3368769230769  0 41.5976111111111  C 5.175125 44.9507096153846  11.324 46.9068837606838  17.9265 46.9068837606838  C 39.63875 46.9068837606838  51.905625 28.374833974359  51.164625 11.7533542735043  Z " fill-rule="nonzero" fill="#1896dd" stroke="none" transform="matrix(1 0 0 1 590 6 )" />
  </g>
</svg>