<?xml version="1.0" encoding="utf-8"?>
<svg version="1.1" xmlns:xlink="http://www.w3.org/1999/xlink" width="48px" height="48px" xmlns="http://www.w3.org/2000/svg">
  <defs>
    <linearGradient gradientUnits="userSpaceOnUse" x1="40.0624831672494" y1="12.4104497710755" x2="24" y2="48" id="LinearGradient34">
      <stop id="Stop35" stop-color="#1896dd" offset="0" />
      <stop id="Stop36" stop-color="#25356e" offset="1" />
    </linearGradient>
  </defs>
  <g transform="matrix(1 0 0 1 -785 -5 )">
    <path d="M 28.3234126984127 45.6865079365079  C 39.8948412698413 52.7023809523809  53.1111111111111 39.218253968254  45.9900793650794 27.7103174603175  C 48.6825396825397 12.3035714285714  35.2440476190476 -0.884920634920638  20.093253968254 1.95833333333333  C 8.54365079365079 -5.10714285714286  -4.71428571428572 8.35912698412698  2.36507936507936 19.8730158730159  C -0.386904761904765 35.2440476190476  13.047619047619 48.6031746031746  28.3234126984127 45.6865079365079  Z M 36.9384920634921 29.4166666666667  C 36.9365079365079 35.4464285714286  32.1309523809524 39.3988095238095  24.9523809523809 39.3988095238095  C 18.640873015873 39.3988095238095  12.297619047619 36.5257936507936  12.3293650793651 31.5793650793651  C 12.3392857142857 30.0873015873016  13.4484126984127 28.718253968254  14.9265873015873 28.718253968254  C 18.6428571428571 28.718253968254  18.6071428571429 34.2638888888889  24.5238095238095 34.2638888888889  C 28.6765873015873 34.2638888888889  30.093253968254 31.9900793650794  30.093253968254 30.406746031746  C 30.093253968254 24.6805555555556  12.1507936507936 28.1904761904762  12.1507936507936 17.4246031746032  C 12.1507936507936 11.5952380952381  16.9166666666667 7.57936507936508  24.4107142857143 8.01785714285714  C 31.5575396825397 8.44047619047619  35.7460317460317 11.5952380952381  36.1507936507936 14.5436507936508  C 36.3511904761905 16.4702380952381  35.0753968253968 17.9702380952381  32.859126984127 17.9702380952381  C 29.6289682539683 17.9702380952381  29.297619047619 13.6428571428571  23.7321428571429 13.6428571428571  C 21.2202380952381 13.6428571428571  19.1011904761905 14.6904761904762  19.1011904761905 16.9642857142857  C 19.1011904761905 21.7162698412698  36.9384920634921 18.9583333333333  36.9384920634921 29.4166666666667  Z " fill-rule="nonzero" fill="url(#LinearGradient34)" stroke="none" transform="matrix(1 0 0 1 785 5 )" />
  </g>
</svg>