<?xml version="1.0" encoding="utf-8"?>
<svg version="1.1" xmlns:xlink="http://www.w3.org/1999/xlink" width="80px" height="83px" xmlns="http://www.w3.org/2000/svg">
  <g transform="matrix(1 0 0 1 -645 -14 )">
    <path d="M 27.5366666666667 44.9583333333333  C 33.7966666666667 44.9583333333333  34.2133333333333 51.9095833333333  27.4266666666667 51.9095833333333  L 20 51.9095833333333  L 20 44.9583333333333  L 27.5366666666667 44.9583333333333  Z M 60.0133333333333 42  C 59.6233333333333 36.7205833333333  50.9133333333333 35.8145  49.9533333333333 42  L 60.0133333333333 42  Z M 27.9633333333333 38.0416666666667  C 33.54 38.0416666666667  34.42 31.125  27.2733333333333 31.125  L 20 31.125  L 20 38.0416666666667  L 27.9633333333333 38.0416666666667  Z M 63.3333333333333 0  C 72.54 0  80 7.74320833333333  80 17.2916666666667  L 80 65.7083333333333  C 80 75.2567916666667  72.54 83  63.3333333333333 83  L 16.6666666666667 83  C 7.46 83  0 75.2567916666667  0 65.7083333333333  L 0 17.2916666666667  C 0 7.74320833333333  7.46 0  16.6666666666667 0  L 63.3333333333333 0  Z M 46.6666666666667 25  L 46.6666666666667 28  L 63.3333333333333 28  L 63.3333333333333 25  L 46.6666666666667 25  Z M 27.7033333333333 58  C 42.7766666666667 58.764  42.52 43.0839166666667  34.8266666666667 40.1789166666667  C 41.1833333333333 36.8105  40.95 24.4435  28.7833333333333 25  L 14 25  L 14 58  L 27.7033333333333 58  Z M 66.66 47  C 66.6933333333334 45.0032916666667  66.62 43.42975  66.45 42.2608333333333  C 65.5366666666667 36.1637916666667  61.3566666666667 32.05875  54.5066666666667 32.05875  C 47.5266666666667 32.05875  43.3333333333334 36.6929166666667  43.3333333333334 45.7087916666667  C 43.3333333333334 54.8076666666667  47.89 58.7916666666667  54.72 58.7916666666667  C 61.55 58.7916666666667  65.0733333333334 54.8664583333333  66.0533333333333 51.875  L 59.0166666666667 51.875  C 56.5633333333333 54.831875  49.3733333333333 53.6767916666667  49.7933333333334 47  L 66.66 47  Z " fill-rule="nonzero" fill="#000000" stroke="none" transform="matrix(1 0 0 1 645 14 )" />
  </g>
</svg>