<?xml version="1.0" encoding="utf-8"?>
<svg version="1.1" xmlns:xlink="http://www.w3.org/1999/xlink" width="91px" height="84px" xmlns="http://www.w3.org/2000/svg">
  <g transform="matrix(1 0 0 1 -356 -12 )">
    <path d="M 91 0  L 0 0  L 0 84  L 91 84  L 91 0  Z M 29 33  L 29 69  L 15 69  L 15 33  L 29 33  Z M 29.1926 20.6926153846154  C 29.1926 24.2926153846154  26.264 27.1728  21.5538 27.1728  L 21.4646 27.1728  C 16.9356 27.1728  14 24.2926153846154  14 20.6926153846154  C 14 17.0136  17.0214 14.2150153846154  21.6422 14.2150153846154  C 26.264 14.2150153846154  29.1042 17.0136  29.1926 20.6926153846154  Z M 77 48.2837538461538  L 77 69  L 63 69  L 63 49.7252307692308  C 63.4952 44.6868923076923  61.544 41.2476923076923  56.6562 41.2476923076923  C 52.9234 41.2476923076923  50.7052 43.5633230769231  49.728 45.8064  C 49.3728 46.6076307692308  49.28 47.7214153846154  49 48.8449846153846  L 49 69  L 35.7726 69  C 35.7726 69.7851692307692  35.9536 35.808  35.7726 33  L 49.28 33  L 49.28 37.6035692307692  C 51.0746 35.0545846153846  54.2772 31.4102769230769  61.4512 31.4102769230769  C 70.3386 31.4102769230769  77 36.7678153846154  77 48.2837538461538  Z " fill-rule="nonzero" fill="#a27635" stroke="none" transform="matrix(1 0 0 1 356 12 )" />
  </g>
</svg>