<?xml version="1.0" encoding="utf-8"?>
<svg version="1.1" xmlns:xlink="http://www.w3.org/1999/xlink" width="80px" height="80px" xmlns="http://www.w3.org/2000/svg">
  <defs>
    <linearGradient gradientUnits="userSpaceOnUse" x1="66.7708052787489" y1="20.6840829517925" x2="40" y2="80" id="LinearGradient38">
      <stop id="Stop39" stop-color="#1896dd" offset="0" />
      <stop id="Stop40" stop-color="#25356e" offset="1" />
    </linearGradient>
  </defs>
  <g transform="matrix(1 0 0 1 -699 -12 )">
    <path d="M 47.2056878306878 76.1441798941799  C 66.4914021164021 87.8373015873016  88.5185185185185 65.3637566137566  76.6501322751323 46.1838624338624  C 81.1375661375661 20.5059523809524  58.7400793650794 -1.47486772486773  33.4887566137566 3.26388888888889  C 14.239417989418 -8.51190476190476  -7.85714285714286 13.9318783068783  3.94179894179894 33.1216931216931  C -0.644841269841276 58.7400793650794  21.7460317460317 81.005291005291  47.2056878306878 76.1441798941799  Z M 61.5641534391534 49.0277777777778  C 61.5608465608466 59.0773809523809  53.5515873015873 65.6646825396825  41.5873015873016 65.6646825396825  C 31.0681216931217 65.6646825396825  20.4960317460317 60.8763227513227  20.5489417989418 52.6322751322751  C 20.5654761904762 50.1455026455026  22.4140211640212 47.8637566137566  24.8776455026455 47.8637566137566  C 31.0714285714286 47.8637566137566  31.0119047619048 57.1064814814815  40.8730158730159 57.1064814814815  C 47.7943121693122 57.1064814814815  50.1554232804233 53.3167989417989  50.1554232804233 50.6779100529101  C 50.1554232804233 41.1342592592593  20.2513227513228 46.984126984127  20.2513227513228 29.0410052910053  C 20.2513227513228 19.3253968253968  28.1944444444444 12.6322751322751  40.6845238095238 13.3630952380952  C 52.5958994708995 14.0674603174603  59.5767195767196 19.3253968253968  60.2513227513227 24.239417989418  C 60.5853174603175 27.4503968253968  58.4589947089947 29.9503968253968  54.7652116402116 29.9503968253968  C 49.3816137566137 29.9503968253968  48.8293650793651 22.7380952380952  39.5535714285714 22.7380952380952  C 35.3670634920635 22.7380952380952  31.8353174603175 24.484126984127  31.8353174603175 28.2738095238095  C 31.8353174603175 36.1937830687831  61.5641534391534 31.5972222222222  61.5641534391534 49.0277777777778  Z " fill-rule="nonzero" fill="url(#LinearGradient38)" stroke="none" transform="matrix(1 0 0 1 699 12 )" />
  </g>
</svg>