<?xml version="1.0" encoding="utf-8"?>
<svg version="1.1" xmlns:xlink="http://www.w3.org/1999/xlink" width="91px" height="75px" xmlns="http://www.w3.org/2000/svg">
  <g transform="matrix(1 0 0 1 -379 -17 )">
    <path d="M 81.683875 18.7553525641026  C 85.3314583333333 16.0934134615385  88.4975 12.7726923076923  91 8.99235576923077  C 87.6519583333333 10.493766025641  84.0536666666667 11.5049198717949  80.2771666666667 11.9607051282051  C 84.1332916666667 9.62815705128205  87.0945833333333 5.93208333333334  88.486125 1.5274358974359  C 84.88025 3.68762820512821  80.8838333333333 5.25798076923077  76.6295833333333 6.10443910256411  C 73.2284583333334 2.43900641025641  68.3713333333333 0.148589743589749  63.0023333333333 0.148589743589749  C 50.948625 0.148589743589749  42.0912916666667 11.50875  44.8137083333333 23.3017147435897  C 29.302 22.5165384615385  15.5458333333333 15.0094871794872  6.335875 3.59953525641026  C 1.444625 12.075608974359  3.79925 23.1638301282051  12.1105833333333 28.7787980769231  C 9.0545 28.6792147435897  6.17283333333333 27.8327564102564  3.65895833333333 26.4194391025641  C 3.45420833333333 35.1559615384615  9.65358333333333 43.3294551282051  18.63225 45.148766025641  C 16.004625 45.8688301282051  13.12675 46.0373557692308  10.1995833333333 45.4704967948718  C 12.5731666666667 52.9622275641026  19.4664166666667 58.4125  27.64125 58.5657051282051  C 19.7925 64.7820032051282  9.90383333333333 67.5588461538461  0 66.3791666666667  C 8.26204166666666 71.7298557692308  18.0786666666667 74.8514102564102  28.6195 74.8514102564102  C 63.2829166666667 74.8514102564102  82.866875 45.2789903846154  81.683875 18.7553525641026  Z " fill-rule="nonzero" fill="#1896dd" stroke="none" transform="matrix(1 0 0 1 379 17 )" />
  </g>
</svg>