<?xml version="1.0" encoding="utf-8"?>
<svg version="1.1" xmlns:xlink="http://www.w3.org/1999/xlink" width="21px" height="14px" xmlns="http://www.w3.org/2000/svg">
  <g transform="matrix(1 0 0 1 -934 -2907 )">
    <path d="M 11.2935435435435 1.1637150997151  C 11.3057519057519 1.17576068376069  11.2813351813352 1.22394301994302  11.2569184569185 1.24803418803419  L 7.5944097944098 7.21059829059829  L 11.5010857010857 13.5345299145299  C 11.5255024255024 13.5827122507123  11.5377107877108 13.6308945868946  11.5255024255024 13.6790769230769  C 11.5132940632941 13.7272592592593  11.4644606144606 13.6911225071225  11.3912104412104 13.7031680911681  L 8.59549549549549 13.7031680911681  C 8.4001617001617 13.7031680911681  8.26586971586971 13.6911225071225  8.18041118041118 13.5706666666667  C 7.92403557403557 13.0647521367521  7.6554516054516 12.5708831908832  7.39907599907599 12.0649686609687  C 7.14270039270039 11.5710997150997  6.86190806190806 11.0651851851852  6.56890736890737 10.5472250712251  C 6.27590667590667 10.029264957265  5.98290598290598 9.51130484330484  5.68990528990529 8.98129914529915  L 5.66548856548856 8.98129914529915  C 5.40911295911296 9.49925925925926  5.12832062832062 10.0172193732194  4.84752829752829 10.5351794871795  C 4.56673596673596 11.0531396011396  4.28594363594363 11.5710997150997  4.01735966735966 12.0770142450142  C 3.73656733656733 12.5829287749288  3.455775005775 13.1008888888889  3.17498267498267 13.5947578347578  C 3.12614922614922 13.7152136752137  3.02848232848232 13.7272592592593  2.89419034419034 13.7272592592593  L 0.208350658350655 13.7272592592593  C 0.159517209517206 13.7272592592593  0.122892122892118 13.7513504273504  0.122892122892118 13.6911225071225  C 0.110683760683756 13.6429401709402  0.122892122892118 13.5947578347578  0.147308847308844 13.5586210826211  L 3.94410949410949 7.41537321937322  L 0.244975744975745 1.2359886039886  C 0.208350658350659 1.18780626780627  0.196142296142297 1.13962393162393  0.22055902055902 1.11553276353276  C 0.244975744975745 1.07939601139601  0.293809193809194 1.06735042735043  0.342642642642642 1.06735042735043  L 3.11394086394086 1.06735042735043  C 3.17498267498268 1.06735042735043  3.23602448602449 1.07939601139601  3.28485793485793 1.0914415954416  C 3.33369138369138 1.11553276353276  3.37031647031647 1.15166951566952  3.40694155694156 1.19985185185185  C 3.63890043890044 1.71781196581197  3.90748440748441 2.23577207977208  4.18827673827674 2.75373219373219  C 4.48127743127743 3.27169230769231  4.76206976206976 3.77760683760684  5.06727881727882 4.28352136752137  C 5.36027951027951 4.7894358974359  5.62886347886348 5.29535042735043  5.88523908523909 5.81331054131054  L 5.90965580965581 5.81331054131054  C 6.16603141603142 5.28330484330484  6.43461538461538 4.76534472934473  6.70319935319935 4.2594301994302  C 6.97178332178332 3.75351566951567  7.25257565257565 3.24760113960114  7.53336798336798 2.74168660968661  C 7.81416031416031 2.23577207977208  8.08274428274428 1.71781196581197  8.35132825132825 1.22394301994302  C 8.36353661353662 1.17576068376069  8.38795333795334 1.12757834757835  8.42457842457843 1.10348717948718  C 8.47341187341188 1.07939601139601  8.52224532224532 1.06735042735043  8.58328713328713 1.07939601139601  L 11.1592515592516 1.07939601139601  C 11.2202933702934 1.06735042735043  11.2813351813352 1.10348717948718  11.2935435435435 1.1637150997151  Z M 18.7772695772696 13.7874871794872  C 18.1546431046431 13.8958974358974  17.5320166320166 13.9561253561254  16.8971817971818 13.9561253561254  C 15.993762993763 13.9681709401709  15.0903441903442 13.7874871794872  14.2723839223839 13.4140740740741  C 13.5032571032571 13.0647521367521  12.8684222684223 12.4865641025641  12.4289212289212 11.7758746438746  C 11.9772118272118 11.041094017094  11.7574613074613 10.1256296296296  11.7574613074613 9.02948148148148  C 11.745252945253 8.13810826210826  11.9772118272118 7.25878062678063  12.4289212289212 6.48786324786325  C 12.892838992839 5.70490028490029  13.5642989142989 5.05443874643875  14.3700508200508 4.62079772079772  C 15.2246361746362 4.15101994301994  16.2501386001386 3.92215384615385  17.4587664587665 3.92215384615385  C 17.5198082698083 3.92215384615385  17.6052668052668 3.92215384615385  17.7151420651421 3.93419943019943  C 17.8250173250173 3.94624501424501  17.947100947101 3.94624501424501  18.0936012936013 3.9582905982906  L 18.0936012936013 0.151886039886041  C 18.0936012936013 0.0675669515669512  18.1302263802264 0.0193846153846158  18.2156849156849 0.0193846153846158  L 20.6939824439825 0.0193846153846158  C 20.7550242550243 0.00733903133903065  20.8038577038577 0.0555213675213673  20.8160660660661 0.103703703703704  L 20.8160660660661 11.5951908831909  C 20.8160660660661 11.8120113960114  20.8282744282744 12.0529230769231  20.8404827904828 12.3179259259259  C 20.8648995148995 12.5708831908832  20.8771078771079 12.8117948717949  20.8893162393162 13.0165698005698  C 20.8893162393162 13.1008888888889  20.8526911526912 13.1731623931624  20.7672326172326 13.2092991452991  C 20.1323977823978 13.474301994302  19.4609378609379 13.6670313390313  18.7772695772696 13.7874871794872  Z M 17.6541002541003 11.6072364672365  C 17.812808962809 11.6192820512821  17.9471009471009 11.5951908831909  18.0936012936013 11.5470085470085  L 18.0936012936013 6.24695156695157  C 17.983726033726 6.2228603988604  17.8738507738508 6.19876923076923  17.7639755139755 6.18672364672365  C 17.6296835296835 6.17467806267806  17.4953915453916 6.16263247863248  17.3610995610996 6.16263247863248  C 16.8849734349734 6.16263247863248  16.4088473088473 6.25899715099715  15.9815546315546 6.47581766381766  C 15.5664703164703 6.68059259259259  15.2124278124278 6.98173219373219  14.9438438438438 7.36719088319088  C 14.6752598752599 7.75264957264957  14.5409678909679 8.27060968660969  14.5409678909679 8.89698005698006  C 14.5287595287595 9.3185754985755  14.6020097020097 9.74017094017094  14.74851004851 10.1376752136752  C 14.8705936705937 10.462905982906  15.0537191037191 10.752  15.2978863478863 10.9929116809117  C 15.5298452298452 11.2097321937322  15.8106375606376 11.3783703703704  16.128054978055 11.474735042735  C 16.4576807576808 11.5831452991453  16.7995148995149 11.6313276353276  17.141349041349 11.6313276353276  C 17.3244744744745 11.6313276353276  17.4953915453915 11.6192820512821  17.6541002541003 11.6072364672365  Z " fill-rule="nonzero" fill="#ff61f6" stroke="none" transform="matrix(1 0 0 1 934 2907 )" />
  </g>
</svg>