<?xml version="1.0" encoding="utf-8"?>
<svg version="1.1" xmlns:xlink="http://www.w3.org/1999/xlink" width="16px" height="16px" xmlns="http://www.w3.org/2000/svg">
  <g transform="matrix(1 0 0 1 -1287 -19 )">
    <path d="M 15.4288901282766 0  C 15.5478713515523 0  15.6549544525005 0.0327380952380967  15.750139431121 0.0982142857142865  C 15.9464584495259 0.241071428571429  16.026770775237 0.431547619047619  15.9910764082543 0.669642857142858  L 13.7066369213608 14.3839285714286  C 13.6768916155419 14.5565476190476  13.5817066369214 14.6904761904762  13.4210819854992 14.7857142857143  C 13.3377951292062 14.8333333333333  13.2455846811675 14.8571428571429  13.1444506413832 14.8571428571429  C 13.0790109685815 14.8571428571429  13.0076222346161 14.8422619047619  12.9302844394869 14.8125  L 8.88789737869492 13.1607142857143  L 6.72838817624094 15.7946428571429  C 6.62130507529281 15.9315476190476  6.47555307678007 16  6.29113218070273 16  C 6.21379438557353 16  6.14835471277189 15.9880952380952  6.09481316229783 15.9642857142857  C 5.98178100018591 15.922619047619  5.89105781743819 15.8526785714286  5.82264361405466 15.7544642857143  C 5.75422941067113 15.65625  5.72002230897936 15.547619047619  5.72002230897936 15.4285714285714  L 5.72002230897936 12.3125  L 13.4300055772448 2.85714285714286  L 3.89068600111545 11.1160714285714  L 0.365867261572783 9.66964285714286  C 0.145751998512735 9.58630952380952  0.0267707752370329 9.42261904761905  0.00892359174567764 9.17857142857143  C -0.00297453058189255 8.94047619047619  0.0922104480386689 8.76488095238095  0.294478527607362 8.65178571428572  L 15.1433351924149 0.0803571428571424  C 15.2325711098717 0.0267857142857135  15.3277560884923 0  15.4288901282766 0  Z " fill-rule="nonzero" fill="#000000" stroke="none" transform="matrix(1 0 0 1 1287 19 )" />
  </g>
</svg>