<?xml version="1.0" encoding="utf-8"?>
<svg version="1.1" xmlns:xlink="http://www.w3.org/1999/xlink" width="18px" height="25px" xmlns="http://www.w3.org/2000/svg">
  <defs>
    <filter x="-1px" y="-1px" width="18px" height="25px" filterUnits="userSpaceOnUse" id="filter15">
      <feOffset dx="0" dy="0" in="SourceAlpha" result="shadowOffsetInner" />
      <feGaussianBlur stdDeviation="0.5" in="shadowOffsetInner" result="shadowGaussian" />
      <feComposite in2="shadowGaussian" operator="atop" in="SourceAlpha" result="shadowComposite" />
      <feColorMatrix type="matrix" values="0 0 0 0 0  0 0 0 0 0  0 0 0 0 0  0 0 0 0.313725490196078 0  " in="shadowComposite" />
    </filter>
    <g id="widget16">
      <path d="M 1.51126516464471 0.265066964285715  L 15.7088388214905 14.55078125  C 15.9953783939919 14.8297991071429  16.0600808781051 15.1506696428571  15.9029462738302 15.5133928571429  C 15.7458116695552 15.8854166666667  15.473136915078 16.0714285714286  15.0849220103986 16.0714285714286  C 15.0849220103986 16.0714285714286  7.64183708838938 16.1644345238095  7.42000000000117 16.0714285714286  C 7.19816291161295 15.9784226190476  1.51126516464471 22.5027901785714  1.51126516464471 22.5027901785714  C 1.33564413633738 22.6795014880952  1.12767186597343 22.7678571428571  0.88734835355286 22.7678571428571  C 0.776429809358752 22.7678571428571  0.665511265164645 22.7446056547619  0.554592720970537 22.6981026785714  C 0.184864240323512 22.5399925595238  0 22.265625  0 21.875  L 0 0.892857142857142  C 0 0.502232142857142  0.184864240323512 0.227864583333331  0.554592720970537 0.0697544642857151  C 0.665511265164645 0.0232514880952384  0.776429809358752 0  0.88734835355286 0  C 1.1369150779896 0  1.34488734835355 0.0883556547619069  1.51126516464471 0.265066964285715  Z " fill-rule="nonzero" fill="#f59106" stroke="none" />
    </g>
  </defs>
  <g transform="matrix(1 0 0 1 1 1 )">
    <use xlink:href="#widget16" filter="url(#filter15)" />
    <use xlink:href="#widget16" />
  </g>
</svg>