<?xml version="1.0" encoding="utf-8"?>
<svg version="1.1" xmlns:xlink="http://www.w3.org/1999/xlink" width="55px" height="9px" xmlns="http://www.w3.org/2000/svg">
  <g transform="matrix(1 0 0 1 -473 -169 )">
    <path d="M 54.3196614583333 0.66796875  C 54.7732204861111 1.11328125  55 1.640625  55 2.25  L 55 6.75  C 55 7.359375  54.7732204861111 7.88671875  54.3196614583333 8.33203125  C 53.8661024305556 8.77734375  53.3289930555556 9  52.7083333333333 9  L 2.29166666666667 9  C 1.67100694444444 9  1.13389756944444 8.77734375  0.680338541666667 8.33203125  C 0.226779513888889 7.88671875  0 7.359375  0 6.75  L 0 2.25  C 0 1.640625  0.226779513888889 1.11328125  0.680338541666667 0.66796875  C 1.13389756944444 0.22265625  1.67100694444444 0  2.29166666666667 0  L 52.7083333333333 0  C 53.3289930555556 0  53.8661024305556 0.22265625  54.3196614583333 0.66796875  Z " fill-rule="nonzero" fill="#000000" stroke="none" transform="matrix(1 0 0 1 473 169 )" />
  </g>
</svg>