<?xml version="1.0" encoding="utf-8"?>
<svg version="1.1" xmlns:xlink="http://www.w3.org/1999/xlink" width="64px" height="11px" xmlns="http://www.w3.org/2000/svg">
  <g transform="matrix(1 0 0 1 -467 -153 )">
    <path d="M 63.2083333333333 0.81640625  C 63.7361111111111 1.36067708333333  64 2.00520833333333  64 2.75  L 64 8.25  C 64 8.99479166666667  63.7361111111111 9.63932291666667  63.2083333333333 10.18359375  C 62.6805555555556 10.7278645833333  62.0555555555556 11  61.3333333333333 11  L 2.66666666666667 11  C 1.94444444444444 11  1.31944444444444 10.7278645833333  0.791666666666667 10.18359375  C 0.263888888888889 9.63932291666667  0 8.99479166666667  0 8.25  L 0 2.75  C 0 2.00520833333333  0.263888888888889 1.36067708333333  0.791666666666667 0.81640625  C 1.31944444444444 0.272135416666667  1.94444444444444 0  2.66666666666667 0  L 61.3333333333333 0  C 62.0555555555556 0  62.6805555555556 0.272135416666667  63.2083333333333 0.81640625  Z " fill-rule="nonzero" fill="#000000" stroke="none" transform="matrix(1 0 0 1 467 153 )" />
  </g>
</svg>