<?xml version="1.0" encoding="utf-8"?>
<svg version="1.1" xmlns:xlink="http://www.w3.org/1999/xlink" width="68px" height="20px" xmlns="http://www.w3.org/2000/svg">
  <g transform="matrix(1 0 0 1 -469 -171 )">
    <path d="M 67.1588541666667 1.484375  C 67.7196180555556 2.47395833333333  68 3.64583333333333  68 5  L 68 15  C 68 16.3541666666667  67.7196180555556 17.5260416666667  67.1588541666667 18.515625  C 66.5980902777778 19.5052083333333  65.9340277777778 20  65.1666666666667 20  L 2.83333333333333 20  C 2.06597222222222 20  1.40190972222222 19.5052083333333  0.841145833333333 18.515625  C 0.280381944444444 17.5260416666667  0 16.3541666666667  0 15  L 0 5  C 0 3.64583333333333  0.280381944444444 2.47395833333333  0.841145833333333 1.484375  C 1.40190972222222 0.494791666666667  2.06597222222222 0  2.83333333333333 0  L 65.1666666666667 0  C 65.9340277777778 0  66.5980902777778 0.494791666666667  67.1588541666667 1.484375  Z " fill-rule="nonzero" fill="#000000" stroke="none" transform="matrix(1 0 0 1 469 171 )" />
  </g>
</svg>