<svg id="Layer_1" data-name="Layer 1" xmlns="http://www.w3.org/2000/svg" viewBox="0 0 221.59 181.98"><defs><style>.cls-1{fill:#40a8df;}</style></defs><path class="cls-1" d="M40.91,215.72a93,93,0,0,0,63.8-18.5c.27-.2.51-.46,1-.92-20.85-1.78-35-12.14-42.82-31.77,7,.84,13.63,1,20.16-1-10.41-2.65-19.21-7.85-26-16.21a44.71,44.71,0,0,1-10.21-29.14,60.64,60.64,0,0,0,9.92,3.93,40,40,0,0,0,10.61,1.48c-1.4-1.14-2.39-1.93-3.36-2.75-11-9.19-16.62-21-16.86-35.27a44.47,44.47,0,0,1,5.08-21.25c.79-1.54,1.22-1.75,2.44-.31A129.51,129.51,0,0,0,88.23,92.37a128.89,128.89,0,0,0,50.49,17.16c2.46.3,4.93.49,7.38.8,1.63.21,2.26,0,1.92-2-2.74-15.9,1.51-29.73,12.88-41.19,17.3-17.45,46.18-17.64,63.91-.46a4.3,4.3,0,0,0,4.58,1.27,98.37,98.37,0,0,0,26.32-10.49,43.74,43.74,0,0,1-7.57,14.18,55.32,55.32,0,0,1-11.49,10.63c8.37-.54,16.21-3,24-6,.52,1-.31,1.54-.72,2.12A90.17,90.17,0,0,1,240.48,98a3.09,3.09,0,0,0-1.42,2.89c.8,33.84-10,63.74-31.4,89.7a119.63,119.63,0,0,1-67.81,41.66c-35.6,7.92-69.29,2.93-100.64-16.14C39.54,215,40.29,215.65,40.91,215.72Z" transform="translate(-39.21 -53.92)"/></svg>