<svg id="Layer_1" data-name="Layer 1" xmlns="http://www.w3.org/2000/svg" viewBox="0 0 230.28 143.21" preserveAspectRatio="none">
  <path d="M34.86,218V75.55c1.71-.08,3.38-.23,5-.23,20.57,0,41.13-.29,61.69.13a83.33,83.33,0,0,1,22.06,3.28c14.26,4.33,22.07,14.67,23.49,29.44,1.27,13.22-2.3,24.47-14.55,31.61a10.31,10.31,0,0,0-1.59,1.29c-.1.1-.11.3-.28.76,12,5.31,19.24,14.43,21.07,27.57,2.9,20.83-7.48,46.34-39.06,48.25C87.06,219.2,61.22,218,34.86,218Zm32.61-24.42c13.61,0,27,.94,40.2-.3,10-.93,14.69-8.82,14.58-19.67-.1-9.68-4.54-15.62-14.87-16.88-10.12-1.24-20.45-.79-30.69-1-3-.08-6.1,0-9.22,0Zm0-60.74c13.47-.56,26.62-1.07,39.76-1.72a11.48,11.48,0,0,0,3.87-1.49c6.28-3,9-8.5,8.12-16.5-.72-6.59-4.23-11-11.26-11.7-10.37-1-20.83-.92-31.25-1.24-3-.1-6.11,0-9.24,0Z" transform="translate(-34.86 -75.22)" />
  <path d="M265.08,170.37H191.2c-2.53,12.63,7.33,24.86,20.51,25.83,9.62.71,18.53-.46,24.06-9.89a3.47,3.47,0,0,1,2.56-1.35c8.29-.1,16.59-.06,25.46-.06-3.25,12.75-10.53,21.65-21.44,26.87C223,221,203.67,220.4,185,209.5c-10.32-6-16.62-15.24-19.41-26.67a78,78,0,0,1,.29-38.69c6.94-26.52,30.44-37.73,53.82-35.12,28.54,3.18,44.11,20.47,45.37,49.09C265.23,161.9,265.08,165.7,265.08,170.37Zm-27.72-17.86c-.41-14.29-11-23-25.89-21.9-11.6.86-20.73,11-19.51,21.9Z" transform="translate(-34.86 -75.22)" />
  <path d="M242.54,95.1H186V81.84h56.53Z" transform="translate(-34.86 -75.22)" />
</svg>