<svg id="Layer_1" data-name="Layer 1" xmlns="http://www.w3.org/2000/svg" viewBox="0 0 273.48 273.48"><path d="M150.78,13.32q57.51,0,115,0c10.2,0,18,6.11,20.44,15.85a17.71,17.71,0,0,1,.41,4.31q0,115.2.09,230.4c0,10.8-9.27,22.89-22.88,22.84q-113.19-.44-226.39,0c-12.58.05-24.26-11.48-24.21-24.25.29-75.34.15-150.68.14-226,0-14.22,8.79-23.17,23.09-23.19q57.15-.07,114.29,0Zm10.15,119V119.51H121.77V241H161v-4.68q0-33,0-66.07a22.52,22.52,0,0,1,6.21-15.87c8.74-9.42,24.48-8.85,30.45,1.68a33.41,33.41,0,0,1,4.05,15.2c.44,21.9.21,43.81.22,65.71v4.11h39.42V238c0-24.45.07-48.91-.07-73.37a56.74,56.74,0,0,0-1.49-12.23c-3.73-16.45-12.29-29.1-29.26-34-14.19-4.09-27.86-3.13-40,6.49C167.1,127.61,163.59,130.24,160.93,132.29ZM98,119.5H58.94V241H98ZM58.74,79.7C58.73,92.13,67.4,101,79.62,101c12.45,0,21.5-8.93,21.46-21.24s-8.7-21.08-21-21.08C67.21,58.66,58.74,67,58.74,79.7Z" transform="translate(-13.26 -13.26)"/></svg>