<?xml version="1.0" encoding="utf-8"?>
<svg version="1.1" xmlns:xlink="http://www.w3.org/1999/xlink" width="18px" height="19px" xmlns="http://www.w3.org/2000/svg">
  <g transform="matrix(1 0 0 1 -231 -151 )">
    <path d="M 17.6025815217391 7.61585365853659  C 17.867527173913 7.92073170731707  18 8.28861788617886  18 8.71951219512195  L 18 10.280487804878  C 18 10.7113821138211  17.867527173913 11.0792682926829  17.6025815217391 11.3841463414634  C 17.3376358695652 11.6890243902439  16.9932065217391 11.8414634146341  16.5692934782609 11.8414634146341  L 7.96059782608696 11.8414634146341  L 11.5434782608696 15.4268292682927  C 11.8532608695652 15.719512195122  12.008152173913 16.0853658536585  12.008152173913 16.5243902439024  C 12.008152173913 16.9634146341463  11.8532608695652 17.3292682926829  11.5434782608696 17.6219512195122  L 10.6263586956522 18.5487804878049  C 10.3247282608696 18.849593495935  9.95788043478261 19  9.5258152173913 19  C 9.10190217391304 19  8.73097826086957 18.849593495935  8.41304347826087 18.5487804878049  L 0.452445652173913 10.5975609756098  C 0.150815217391304 10.2967479674797  0 9.93089430894309  0 9.5  C 0 9.07723577235772  0.150815217391304 8.70731707317073  0.452445652173913 8.39024390243902  L 8.41304347826087 0.463414634146342  C 8.72282608695652 0.154471544715446  9.09375 0  9.5258152173913 0  C 9.94972826086956 0  10.3165760869565 0.154471544715446  10.6263586956522 0.463414634146342  L 11.5434782608696 1.36585365853659  C 11.8532608695652 1.67479674796748  12.008152173913 2.04471544715447  12.008152173913 2.47560975609756  C 12.008152173913 2.90650406504065  11.8532608695652 3.27642276422764  11.5434782608696 3.58536585365854  L 7.96059782608696 7.15853658536585  L 16.5692934782609 7.15853658536585  C 16.9932065217391 7.15853658536585  17.3376358695652 7.3109756097561  17.6025815217391 7.61585365853659  Z " fill-rule="nonzero" fill="#000000" stroke="none" transform="matrix(1 0 0 1 231 151 )" />
  </g>
</svg>