<?xml version="1.0" encoding="utf-8"?>
<svg version="1.1" xmlns:xlink="http://www.w3.org/1999/xlink" width="40px" height="40px" xmlns="http://www.w3.org/2000/svg">
  <g transform="matrix(1 0 0 1 -182 -403 )">
    <path d="M 36.320489724252 17.7018315003764  C 39.2829559832124 23.0813062226521  37.6456689316281 24.8745558298756  39.6728166890779 30.0203151348549  L 23.455908728874 39.3762411439081  C 20.4931683705188 35.9457044851003  15.7372697714051 32.7491573429838  11.2932049171048 30.2542132850812  C 10.747473022065 29.9423795402678  10.2016497605603 29.6304544289894  9.57798227093335 29.3186206841759  C 6.69326887363025 27.7592692271787  5.44575116144653 23.705065078744  8.33055592521456 21.9898424325725  C 8.33055592521456 21.9898424325725  10.3577036826644 21.2881479818935  11.9949907342487 22.6136012886644  L 1.23567582383751 5.0712400216896  C 0.378018817519324 3.58991552574449  0.611916967745654 1.87460151310811  2.0933328301557 0.939008912202784  C 3.57465732610082 0.0813519058845937  4.90011063287167 0.861073317615651  5.99166578941619 2.34239781356077  L 14.334063602977 14.1152409194644  C 13.4764065966588 12.6339164235193  13.9442028971114 10.6847042606566  15.5035543541086 9.82713862080335  C 16.9848788500537 8.96948161448516  18.9340910129164 9.43727791493782  19.7916566527697 10.996629371935  L 20.5712866980358 12.3220826787059  C 19.7136296917176 10.8407581827607  20.2594529532224 8.89154601989803  21.7407774491675 8.03398038004477  C 23.2221019451126 7.17632337372658  25.1713141079753 7.64411967417924  26.0288797478286 9.20347113117642  L 27.1983704989602 11.2306188886263  C 26.5746116428684 10.1390637320817  26.9644723487339 8.65773923613663  28.0560275052784 8.03398038004477  C 29.1475826618229 7.41022152395291  30.628907157768 7.87801782440557  31.2526660138599 8.89163738636296  L 36.320489724252 17.7018315003764  Z " fill-rule="nonzero" fill="#ffd0a1" stroke="none" transform="matrix(1 0 0 1 182 403 )" />
  </g>
</svg>