<?xml version="1.0" encoding="utf-8"?>
<svg version="1.1" xmlns:xlink="http://www.w3.org/1999/xlink" width="46px" height="46px" xmlns="http://www.w3.org/2000/svg">
  <defs>
    <linearGradient gradientUnits="userSpaceOnUse" x1="8.27102803738212" y1="4.49532710280484" x2="28.0093457943926" y2="29.3177570093448" id="LinearGradient27">
      <stop id="Stop28" stop-color="#ffffff" offset="0" />
      <stop id="Stop29" stop-color="#000000" offset="1" />
    </linearGradient>
  </defs>
  <g transform="matrix(1 0 0 1 -176 -397 )">
    <path d="M 29.5337529569962 45.9219730389479  C 29.6117799180483 46  29.5338443234611 46  29.4558173624091 46  C 29.3778817678219 46  29.2219192121827 45.9220644054129  29.1439836175956 45.8440374443608  C 26.6490395596931 42.9593240470577  22.5948354112583 39.9186480941154  17.0592154004135 36.799945180121  C 16.5134835053737 36.4881114353076  15.967660243869 36.1761863240292  15.3439927542421 35.8643525792157  C 13.5507431470186 34.8508243837233  12.3033168012998 32.9796391819126  12.3033168012998 31.108453980102  C 12.3033168012998 29.705065078744  12.9270756573916 28.6135099221995  14.0965664085233 27.9118154715205  C 14.2525289641625 27.8338798769333  14.4864271143888 27.8338798769333  14.6422983035631 28.0677780271597  C 14.7202338981502 28.2237405827989  14.7202338981502 28.4576387330252  14.4863357479239 28.6135099221995  C 13.3168449967922 29.3152043728785  13.0829468465659 30.3287325683709  13.0829468465659 31.108453980102  C 13.0829468465659 32.6678054370992  14.1745020031104 34.3830280832706  15.7337620936427 35.2406850895888  C 16.2794939886825 35.5525188344023  16.8253172501872 35.8644439456806  17.4489847398141 36.1762776904941  C 22.8286421950197 39.2948892380235  26.9608733045066 42.2576295963787  29.5337529569962 45.1423429936818  L 45.2049290221603 36.098250729442  C 44.4252989768942 33.9931673774051  44.1914008266679 32.4338159204079  44.0354382710287 30.9524914244628  C 43.8015401208024 29.003370628065  43.567641970576 27.0541584652023  41.8524193244046 24.091509473312  L 36.7845956140124 15.2813153592986  C 36.3167993135598 14.4236583529804  34.9913460067889 14.0338890135798  34.1337803669357 14.5796209086196  C 33.7439196610701 14.813519058846  33.3541503216695 15.2813153592986  33.2761233606175 15.7491116597513  C 33.1201608049783 16.2948435547911  33.1981877660304 16.7626398552437  33.4320859162567 17.2304361556964  C 33.5100215108438 17.3863987113356  33.5100215108438 17.6202968615619  33.2761233606175 17.7761680507362  C 33.1201608049783 17.8541036453233  32.886262654752 17.8541036453233  32.7303914655777 17.620205495097  L 31.560900714446 15.5930577376471  C 30.7812706691799 14.2676044308763  29.1439836175956 13.8778350914757  27.8185303108247 14.5795295421547  C 26.4930770040539 15.3591595874208  26.1033076646533 16.9964466390051  26.8050021153323 18.321899945776  C 26.8829377099194 18.4778625014152  26.8829377099194 18.7117606516415  26.6490395596931 18.8676318408158  C 26.4930770040539 18.9455674354029  26.2591788538276 18.9455674354029  26.1033076646533 18.7116692851766  L 25.3236776193872 17.3862159784057  C 24.9338169135216 16.7624571223139  24.3880850184818 16.2946608218612  23.6863905678029 16.1387896326869  C 22.9846961171239 15.9828270770477  22.2830016664449 16.0608540380998  21.5813072157659 16.3726877829133  C 20.957548359674 16.7625484887788  20.4897520592214 17.3082803838186  20.3338808700471 18.0099748344976  C 20.1780096808728 18.7116692851766  20.25594527546 19.4133637358556  20.6457146148606 20.1150581865346  C 20.7236502094477 20.2710207421738  20.7236502094477 20.5049188924001  20.4897520592214 20.6607900815744  C 20.3337895035822 20.7387256761615  20.0998913533558 20.7387256761615  19.9440201641816 20.5828544869872  L 11.6016223506208 8.81019411401343  C 10.5100671940763 7.32886961806831  9.34057644294462 6.93900891220279  8.24911265286503 7.56276776829465  C 7.62535379677318 7.95253710769524  7.23558445737258 8.4203334081479  7.15755749632051 9.1220278588269  C 7.07962190173338 9.74578671491875  7.15755749632051 10.4474811655977  7.54741820218604 11.1491756162767  L 18.3067331125973 28.6915368832515  C 18.3846687071844 28.8474994388907  18.3846687071844 29.0813975891171  18.1507705569581 29.2372687782913  C 17.9948080013189 29.3152043728785  17.7609098510925 29.3152043728785  17.6050386619183 29.0813062226521  L 6.84572375150705 11.5389449556773  C 6.37792745105439 10.6812879493591  6.22196489541519 9.82372230950589  6.29999185646725 8.9660653031877  C 6.45595441210645 8.10840829686951  7.00168630714625 7.32877825160338  7.78131635241237 6.86098195115072  C 9.26264084835748 6.00332494483253  10.8219923053547 6.54914820633726  12.1474456121255 8.34230644709584  L 19.3982882691418 18.4778625014152  C 19.3982882691418 18.2439643511889  19.4762238637289 18.0100662009625  19.4762238637289 17.7761680507362  C 19.7101220139552 16.8405754498309  20.3338808700471 16.1388809991519  21.1135109153132 15.6710846986992  C 21.8931409605793 15.2032883982466  22.9067605225367 15.0473258426074  23.76432616239 15.3592509538858  C 24.466020613069 15.515213509525  25.0897794691608 15.9830098099776  25.5575757696135 16.5287417050174  C 25.7135383252527 15.515213509525  26.3372058148796 14.5015939475676  27.2727984157849 13.9558620525278  C 28.9880210619564 13.0202694516225  31.0931044139934 13.5660013466622  32.0286970148987 15.2032883982466  L 32.262595165125 15.5931491041121  C 32.262595165125 15.5931491041121  32.262595165125 15.5931491041121  32.262595165125 15.515213509525  C 32.4185577207642 14.813519058846  32.8863540212169 14.1897602027541  33.5100215108438 13.8779264579406  C 34.7574478565626 13.1762320072616  36.5506974637861 13.6440283077143  37.2523919144651 14.8914546534331  L 42.3202156248572 23.7016487674465  C 44.1134652320808 26.820260314976  44.3473633823071 28.7694724778387  44.6591971271205 30.8745558298756  C 44.8151596827597 32.3558803258208  45.0490578329861 33.9931673774051  45.9066234728393 36.0982507294421  C 45.9845590674265 36.2542132850812  45.9066234728393 36.4881114353076  45.7506609172001 36.5660470298947  L 29.5337529569962 45.9219730389479  Z M 3.18128894247289 15.3593423203507  C 3.18128894247289 15.3593423203507  3.10335334788576 15.4372779149378  2.94739079224656 15.4372779149378  C 2.86945519765943 15.4372779149378  2.71349264202023 15.4372779149378  2.6355570474331 15.3593423203507  C 2.4795944917939 15.2033797647115  2.4795944917939 14.9694816144852  2.6355570474331 14.8136104253109  L 4.81857599405721 12.6305914786868  C 4.97453854969641 12.4746289230476  5.20843669992274 12.4746289230476  5.364307889097 12.6305914786868  C 5.5202704447362 12.786554034326  5.5202704447362 13.0204521845523  5.364307889097 13.1763233737266  L 3.18128894247289 15.3593423203507  Z M 3.96091898773902 8.9660653031877  C 3.96091898773902 9.19996345341403  3.80504779856475 9.35592600905323  3.57114964833842 9.35592600905323  L 0.452446734344058 9.35592600905323  C 0.218548584117728 9.35592600905323  0.0625860284785298 9.19996345341403  0.0625860284785298 8.9660653031877  C 0.0625860284785298 8.73216715296137  0.218548584117728 8.57620459732217  0.452446734344058 8.57620459732217  L 3.57105828187349 8.57620459732217  C 3.80495643209982 8.57620459732217  3.96091898773902 8.73216715296137  3.96091898773902 8.9660653031877  Z M 13.160973807618 5.3796574552056  C 13.0830382130308 5.45759304979274  13.0050112519788 5.45759304979274  12.9270756573916 5.45759304979274  C 12.8491400628045 5.45759304979274  12.6931775071653 5.45759304979274  12.6152419125782 5.3796574552056  C 12.459279356939 5.22369489956641  12.459279356939 4.98979674934008  12.6152419125782 4.83392556016581  L 14.7982608592023 2.6509066135417  C 14.9542234148415 2.4949440579025  15.1881215650678 2.4949440579025  15.3439927542421 2.6509066135417  C 15.4999553098813 2.8068691691809  15.4999553098813 3.04076731940723  15.3439927542421 3.1966385085815  L 13.160973807618 5.3796574552056  Z M 5.44224348368413 5.3796574552056  C 5.364307889097 5.45759304979274  5.28637229450987 5.45759304979274  5.20843669992274 5.45759304979274  C 5.1305011053356 5.45759304979274  4.9745385496964 5.45759304979274  4.89660295510927 5.3796574552056  L 2.71349264202023 3.1966385085815  C 2.55753008638103 3.0406759529423  2.55753008638103 2.80677780271597  2.71349264202023 2.6509066135417  C 2.86945519765943 2.4949440579025  3.10335334788576 2.4949440579025  3.25922453706003 2.6509066135417  L 5.44224348368413 4.83392556016581  C 5.59820603932333 4.98988811580501  5.59820603932333 5.22378626603134  5.44224348368413 5.3796574552056  Z M 9.41860340399669 3.50847225339496  C 9.41860340399669 3.74237040362129  9.26264084835749 3.89833295926049  9.02874269813116 3.89833295926049  C 8.79484454790483 3.89833295926049  8.63888199226563 3.74237040362129  8.63888199226563 3.50847225339496  L 8.63888199226563 0.389860705865528  C 8.63888199226563 0.155962555639198  8.79484454790483 0  9.02874269813116 0  C 9.26264084835749 0  9.41860340399669 0.155962555639198  9.41860340399669 0.389860705865528  L 9.41860340399669 3.50847225339496  Z " fill-rule="nonzero" fill="url(#LinearGradient27)" stroke="none" transform="matrix(1 0 0 1 176 397 )" />
  </g>
</svg>