<?xml version="1.0" encoding="utf-8"?>
<svg version="1.1" xmlns:xlink="http://www.w3.org/1999/xlink" width="60px" height="60px" xmlns="http://www.w3.org/2000/svg">
  <g transform="matrix(1 0 0 1 -119 -26 )">
    <path d="M 54.4807345863781 26.5527472505646  C 58.9244339748186 34.6219593339782  56.4685033974421 37.3118337448135  59.5092250336169 45.0304727022824  L 35.183863093311 59.0643617158622  C 30.7397525557782 53.9185567276505  23.6059046571076 49.1237360144756  16.9398073756572 45.3813199276219  C 16.1212095330975 44.9135693104017  15.3024746408404 44.4456816434841  14.3669734064 43.9779310262639  C 10.0399033104454 41.6389038407681  8.1686267421698 35.557597618116  12.4958338878218 32.9847636488588  C 12.4958338878218 32.9847636488588  15.5365555239966 31.9322219728403  17.9924861013731 33.9204019329966  L 1.85351373575627 7.6068600325344  C 0.567028226278986 5.38487328861673  0.917875451618481 2.81190226966216  3.13999924523355 1.40851336830418  C 5.36198598915123 0.122027858826891  7.35016594930751 1.29160997642348  8.98749868412429 3.51359672034115  L 21.5010954044654 21.1728613791966  C 20.2146098949882 18.950874635279  20.9163043456672 16.0270563909849  23.2553315311629 14.740707931205  C 25.4773182750806 13.4542224217277  28.4011365193747 14.1559168724067  29.6874849791546 16.4949440579025  L 30.8569300470537 18.4831240180588  C 29.5704445375765 16.2611372741411  30.3891794298335 13.337319029847  32.6111661737512 12.0509705700672  C 34.8331529176689 10.7644850605899  37.756971161963 11.4661795112689  39.0433196217428 13.8052066967646  L 40.7975557484403 16.8459283329394  C 39.8619174643025 15.2085955981226  40.4467085231008 12.9866088542049  42.0840412579176 12.0509705700672  C 43.7213739927344 11.1153322859294  45.9433607366521 11.8170267366084  46.8789990207899 13.3374560795444  L 54.4807345863781 26.5527472505646  Z " fill-rule="nonzero" fill="#ffd0a1" stroke="none" transform="matrix(1 0 0 1 119 26 )" />
  </g>
</svg>