<?xml version="1.0" encoding="utf-8"?>
<svg version="1.1" xmlns:xlink="http://www.w3.org/1999/xlink" width="70px" height="70px" xmlns="http://www.w3.org/2000/svg">
  <defs>
    <linearGradient gradientUnits="userSpaceOnUse" x1="12.5863470134076" y1="6.84071515644215" x2="42.6229175132062" y2="44.6139780576985" id="LinearGradient31">
      <stop id="Stop32" stop-color="#ffffff" offset="0" />
      <stop id="Stop33" stop-color="#000000" offset="1" />
    </linearGradient>
  </defs>
  <g transform="matrix(1 0 0 1 -110 -17 )">
    <path d="M 44.9426675432551 69.8812633201382  C 45.0614042231169 70  44.94280657918 70  44.8240698993181 70  C 44.7054722553812 70  44.4681379315824 69.881402356063  44.3495402876455 69.7626656762012  C 40.5528862864895 65.3728844194356  34.3834451910453 60.7457688388713  25.9596756093249 55.9999165784451  C 25.1292140299166 55.5253869667724  24.2986134145833 55.0507183191748  23.349554191238 54.5761887075022  C 20.6206960932891 53.0338631926224  18.7224386106736 50.1864074507366  18.7224386106736 47.3389517088508  C 18.7224386106736 45.2033599024365  19.6716368699438 43.5422977076949  21.4512967086224 42.4745018044877  C 21.6886310324212 42.3559041605507  22.0445630001569 42.3559041605507  22.2817582880308 42.7118361282865  C 22.4003559319677 42.9491704520852  22.4003559319677 43.305102419821  22.044423964232 43.5422977076949  C 20.2647641255534 44.610093610902  19.9088321578177 46.1524191257818  19.9088321578177 47.3389517088508  C 19.9088321578177 49.7118778390639  21.5698943525594 52.3219992571509  23.9426814468476 53.6271294841568  C 24.7731430262559 54.1016590958295  25.6037436415892 54.5763277434271  26.5528028649345 55.0508573550997  C 34.7392381228561 59.796570579601  41.0274158981621 64.3050885162285  44.9426675432551 68.6948697729941  L 68.7901093815483 54.9321206752379  C 67.6037158344042 51.7287329656164  67.2477838666685 49.3558068354033  67.0104495428697 47.101617385052  C 66.654517575134 44.1355639992293  66.2985856073983 41.1693715774817  63.6884641893113 36.6609926767792  L 55.9765585430624 23.2541755467588  C 55.264694607591 21.9490453197528  53.2477004451136 21.3559180641432  51.9427092540326 22.1863796435516  C 51.349442962498 22.5423116112873  50.7563157068884 23.2541755467588  50.6375790270266 23.9660394822302  C 50.4002447032278 24.7965010616386  50.5189813830897 25.50836499711  50.8749133508254 26.2202289325815  C 50.9935109947623 26.4575632563802  50.9935109947623 26.813495224116  50.6375790270266 27.0506905119899  C 50.4002447032278 27.1692881559268  50.0443127354921 27.1692881559268  49.8071174476182 26.8133561881911  L 48.0274576089396 23.7285661225065  C 46.8410640617955 21.7115719600292  44.3495402876455 21.1184447044195  42.3325461251681 22.1862406076267  C 40.3155519626907 23.3726341547708  39.7224247070811 25.8641579289209  40.7902206102883 27.8811520913982  C 40.9088182542252 28.118486415197  40.9088182542252 28.4744183829327  40.5528862864895 28.7116136708066  C 40.3155519626907 28.8302113147436  39.959619994955 28.8302113147436  39.7224247070811 28.4742793470078  L 38.536031159937 26.4572851845305  C 37.9427648684025 25.5080869252602  37.1123032889941 24.7962229897888  36.044507385787 24.5590277019149  C 34.9767114825798 24.3216933781161  33.9089155793726 24.440430057978  32.8411196761655 24.9149596696506  C 31.8919214168952 25.5082259611851  31.1800574814238 26.3386875405935  30.9428621935499 27.4064834438007  C 30.705666905676 28.4742793470079  30.824264549613 29.542075250215  31.4173918052226 30.6098711534222  C 31.5359894491595 30.8472054772209  31.5359894491595 31.2031374449567  31.1800574814238 31.4403327328306  C 30.942723157625 31.5589303767675  30.5867911898893 31.5589303767675  30.3495959020154 31.3217350888936  L 17.6546427074664 13.4068171300204  C 15.9935805127248 11.1526276796692  14.2139206740462 10.5593613881347  12.5529975152294 11.5085596474049  C 11.6037992559592 12.1016869030145  11.0106720003496 12.8135508384859  10.8919353204877 13.8813467416931  C 10.7733376765508 14.8305450009633  10.8919353204877 15.8983409041705  11.4852016120222 16.9661368073776  L 27.8580721278654 43.6610343875567  C 27.9766697718023 43.8983687113555  27.9766697718023 44.2543006790912  27.6207378040666 44.4914959669651  C 27.3834034802678 44.610093610902  27.0274715125321 44.610093610902  26.7902762246582 44.2541616431663  L 10.4174057088151 17.5592640629872  C 9.70554177334363 16.2541338359813  9.46820744954485 14.9491426449003  9.58694412940669 13.6440124178943  C 9.82427845320547 12.3388821908884  10.6547400326139 11.1524886437443  11.841133579758 10.4406247082728  C 14.0953230301092 9.1354944812669  16.4682491603223 9.96609509660018  18.4852433227997 12.6948141586241  L 29.519134322607 28.118486415197  C 29.519134322607 27.7625544474613  29.637731966544 27.4066224797256  29.637731966544 27.0506905119899  C 29.9936639342797 25.626962641047  30.9428621935499 24.5591667378398  32.129255740694 23.8473028023684  C 33.3156492878381 23.1354388668969  34.8581138386429 22.8981045430982  36.1631050297239 23.3727731906957  C 37.2309009329311 23.6101075144945  38.1800991922013 24.3219714499659  38.8919631276727 25.1524330293743  C 39.1292974514715 23.6101075144945  40.0783566748168 22.0676429636898  41.5020845457597 21.2371813842814  C 44.1122059638467 19.8134535133385  47.3155936734682 20.6439150927469  48.7393215444111 23.1354388668969  L 49.0952535121468 23.7287051584314  C 49.0952535121468 23.7287051584314  49.0952535121468 23.7287051584314  49.0952535121468 23.6101075144945  C 49.3325878359456 22.5423116112873  50.044451771417 21.5931133520171  50.9935109947623 21.1185837403445  C 52.8917684773779 20.0507878371373  55.6206265753267 20.7626517726087  56.6884224785338 22.6609092552243  L 64.4003281247828 36.0677263852447  C 67.1291862227316 40.813439609746  67.4851181904673 43.7796320314936  67.95964780214 46.9830197411151  C 68.1969821259387 49.2372091914664  68.5529140936745 51.7287329656164  69.8579052847555 54.9321206752379  C 69.9765029286925 55.1694549990367  69.8579052847555 55.5253869667724  69.6205709609567 55.6439846107093  L 44.9426675432551 69.8812633201382  Z M 4.84109186898049 23.3729122266206  C 4.84109186898049 23.3729122266206  4.72249422504355 23.4915098705576  4.48515990124477 23.4915098705576  C 4.36656225730783 23.4915098705576  4.12922793350905 23.4915098705576  4.01063028957211 23.3729122266206  C 3.77329596577333 23.1355779028218  3.77329596577333 22.7796459350861  4.01063028957211 22.5424506472122  L 7.33261564313053 19.2204652936538  C 7.56994996692931 18.983130969855  7.92588193466503 18.983130969855  8.16307722253891 19.2204652936538  C 8.4004115463377 19.4577996174526  8.4004115463377 19.8137315851883  8.16307722253891 20.0509268730622  L 4.84109186898049 23.3729122266206  Z M 6.02748541612459 13.6440124178943  C 6.02748541612459 13.99994438563  5.79029012825071 14.2372787094288  5.43435816051499 14.2372787094288  L 0.688505900088784 14.2372787094288  C 0.332573932353064 14.2372787094288  0.0952396085542845 13.99994438563  0.0952396085542845 13.6440124178943  C 0.0952396085542845 13.2880804501586  0.332573932353064 13.0507461263598  0.688505900088784 13.0507461263598  L 5.43421912459009 13.0507461263598  C 5.79015109232581 13.0507461263598  6.02748541612459 13.2880804501586  6.02748541612459 13.6440124178943  Z M 20.0275688376795 8.18643525792157  C 19.9089711937426 8.30503290185851  19.7902345138808 8.30503290185851  19.6716368699438 8.30503290185851  C 19.5530392260069 8.30503290185851  19.3157049022081 8.30503290185851  19.1971072582711 8.18643525792157  C 18.9597729344724 7.94910093412279  18.9597729344724 7.59316896638707  19.1971072582711 7.35597367851319  L 22.5190926118296 4.03398832495476  C 22.7564269356283 3.79665400115598  23.1123589033641 3.79665400115598  23.349554191238 4.03398832495476  C 23.5868885150367 4.27132264875354  23.5868885150367 4.62725461648926  23.349554191238 4.86444990436315  L 20.0275688376795 8.18643525792157  Z M 8.28167486647586 8.18643525792157  C 8.16307722253891 8.30503290185851  8.04447957860197 8.30503290185851  7.92588193466503 8.30503290185851  C 7.80728429072809 8.30503290185851  7.56994996692931 8.30503290185851  7.45135232299237 8.18643525792157  L 4.12922793350905 4.86444990436315  C 3.89189360971027 4.62711558056437  3.89189360971027 4.27118361282865  4.12922793350905 4.03398832495476  C 4.36656225730783 3.79665400115599  4.72249422504355 3.79665400115599  4.95968951291743 4.03398832495476  L 8.28167486647586 7.35597367851319  C 8.51900919027464 7.59330800231197  8.51900919027464 7.94923997004769  8.28167486647586 8.18643525792157  Z M 14.332657353908 5.33897951603581  C 14.332657353908 5.69491148377153  14.0953230301092 5.93224580757031  13.7393910623735 5.93224580757031  C 13.3834590946378 5.93224580757031  13.146124770839 5.69491148377153  13.146124770839 5.33897951603581  L 13.146124770839 0.5932662915345  C 13.146124770839 0.237334323798779  13.3834590946378 0  13.7393910623735 0  C 14.0953230301092 0  14.332657353908 0.237334323798779  14.332657353908 0.5932662915345  L 14.332657353908 5.33897951603581  Z " fill-rule="nonzero" fill="url(#LinearGradient31)" stroke="none" transform="matrix(1 0 0 1 110 17 )" />
  </g>
</svg>