<?xml version="1.0" encoding="utf-8"?>
<svg version="1.1" xmlns:xlink="http://www.w3.org/1999/xlink" width="29px" height="28px" xmlns="http://www.w3.org/2000/svg">
  <g transform="matrix(1 0 0 1 -33 -382 )">
    <path d="M 28.359714673913 11.2233632862644  C 28.786571557971 11.6726572528883  29 12.2148053059478  29 12.8498074454429  L 29 15.1501925545571  C 29 15.7851946940522  28.786571557971 16.3273427471117  28.359714673913 16.7766367137356  C 27.9328577898551 17.2259306803594  27.3779438405797 17.4505776636714  26.694972826087 17  L 12.8254076086957 17  L 18.5978260869565 22.7342747111682  C 19.0969202898551 23.1655969191271  19.3464673913043 23.7047496790757  19.3464673913043 24.3517329910141  C 19.3464673913043 24.9987163029525  19.0969202898551 25.5378690629012  18.5978260869565 25.9691912708601  L 17.1202445652174 27.3350449293967  C 16.6342844202899 27.7783483097989  16.0432518115942 28  15.3471467391304 28  C 14.6641757246377 28  14.0665760869565 27.7783483097989  13.554347826087 27.3350449293967  L 0.728940217391304 15.617458279846  C 0.242980072463768 15.1741548994437  0 14.6350021394951  0 14  C 0 13.3769790329482  0.242980072463768 12.8318356867779  0.728940217391304 12.3645699614891  L 13.554347826087 0.682926829268293  C 14.0534420289855 0.227642276422762  14.6510416666667 0  15.3471467391304 0  C 16.0301177536232 0  16.6211503623188 0.227642276422762  17.1202445652174 0.682926829268293  L 18.5978260869565 2.01283697047497  C 19.0969202898551 2.4681215233205  19.3464673913043 3.0132648694908  19.3464673913043 3.64826700898588  C 19.3464673913043 4.28326914848096  19.0969202898551 4.82841249465126  18.5978260869565 5.28369704749679  L 12.8254076086957 11  L 26.694972826087 11  C 27.3779438405797 10.5494223363286  27.9328577898551 10.7740693196406  28.359714673913 11.2233632862644  Z " fill-rule="nonzero" fill="#000000" stroke="none" transform="matrix(1 0 0 1 33 382 )" />
  </g>
</svg>