<?xml version="1.0" encoding="utf-8"?>
<svg version="1.1" xmlns:xlink="http://www.w3.org/1999/xlink" width="18px" height="18px" xmlns="http://www.w3.org/2000/svg">
  <g transform="matrix(1 0 0 1 -249 -2624 )">
    <path d="M 258 2626  C 261.92 2626  265 2629.08  265 2633  C 265 2636.92  261.92 2640  258 2640  C 254.08 2640  251 2636.92  251 2633  C 251 2629.08  254.08 2626  258 2626  Z " fill-rule="nonzero" fill="#ebebeb" stroke="none" />
    <path d="M 258 2625.5  C 262.2 2625.5  265.5 2628.8  265.5 2633  C 265.5 2637.2  262.2 2640.5  258 2640.5  C 253.8 2640.5  250.5 2637.2  250.5 2633  C 250.5 2628.8  253.8 2625.5  258 2625.5  Z " stroke-width="3" stroke="#000000" fill="none" />
  </g>
</svg>